HIERARCHY
ROOT Hips
{
    OFFSET   0.000000   0.000000   0.000000
    CHANNELS 6 Xposition Yposition Zposition Zrotation Xrotation Yrotation
    JOINT Chest
    {
        OFFSET   0.000000   8.007230   0.000000
        CHANNELS 3 Zrotation Xrotation Yrotation
        JOINT Chest2
        {
            OFFSET   0.000000  22.077100   0.000000
            CHANNELS 3 Zrotation Xrotation Yrotation
            JOINT Neck
            {
                OFFSET   0.000000  23.254800  -0.000021
                CHANNELS 3 Zrotation Xrotation Yrotation
                JOINT Head
                {
                    OFFSET   0.000000  14.370000   1.956610
                    CHANNELS 3 Zrotation Xrotation Yrotation
                    End Site
                    {
                        OFFSET   0.000000  19.566000   0.000000
                    }
                }
            }
            JOINT LeftCollar
            {
                OFFSET   3.911900  19.017000  -0.467063
                CHANNELS 3 Zrotation Xrotation Yrotation
                JOINT LeftShoulder
                {
                    OFFSET  10.383700   0.000000   0.000000
                    CHANNELS 3 Zrotation Xrotation Yrotation
                    JOINT LeftElbow
                    {
                        OFFSET  26.662100   0.001529   0.000325
                        CHANNELS 3 Zrotation Xrotation Yrotation
                        JOINT LeftWrist
                        {
                            OFFSET  28.869000  -0.000011  -0.000096
                            CHANNELS 3 Zrotation Xrotation Yrotation
                            JOINT LeftFinger0
                            {
                                OFFSET   2.044650  -2.323460   3.252850
                                CHANNELS 3 Zrotation Xrotation Yrotation
                                JOINT LeftFinger01
                                {
                                    OFFSET   3.088130   0.000000   0.000000
                                    CHANNELS 3 Zrotation Xrotation Yrotation
                                    JOINT LeftFinger02
                                    {
                                        OFFSET   2.639460   0.000000   0.000000
                                        CHANNELS 3 Zrotation Xrotation Yrotation
                                        End Site
                                        {
                                            OFFSET   2.582190   0.000000   0.000000
                                        }
                                    }
                                }
                            }
                            JOINT LeftFinger1
                            {
                                OFFSET   8.364480   0.000000   3.252850
                                CHANNELS 3 Zrotation Xrotation Yrotation
                                JOINT LeftFinger11
                                {
                                    OFFSET   4.646930   0.000000   0.000000
                                    CHANNELS 3 Zrotation Xrotation Yrotation
                                    JOINT LeftFinger12
                                    {
                                        OFFSET   2.323460   0.000000   0.000000
                                        CHANNELS 3 Zrotation Xrotation Yrotation
                                        End Site
                                        {
                                            OFFSET   2.273050   0.000000   0.000000
                                        }
                                    }
                                }
                            }
                            JOINT LeftFinger2
                            {
                                OFFSET   8.364480   0.000016   1.078090
                                CHANNELS 3 Zrotation Xrotation Yrotation
                                JOINT LeftFinger21
                                {
                                    OFFSET   5.111620   0.000000   0.000000
                                    CHANNELS 3 Zrotation Xrotation Yrotation
                                    JOINT LeftFinger22
                                    {
                                        OFFSET   2.788160   0.000017   0.000000
                                        CHANNELS 3 Zrotation Xrotation Yrotation
                                        End Site
                                        {
                                            OFFSET   2.727660   0.000000   0.000000
                                        }
                                    }
                                }
                            }
                            JOINT LeftFinger3
                            {
                                OFFSET   7.899780   0.000015  -1.078090
                                CHANNELS 3 Zrotation Xrotation Yrotation
                                JOINT LeftFinger31
                                {
                                    OFFSET   4.646920   0.000000   0.000000
                                    CHANNELS 3 Zrotation Xrotation Yrotation
                                    JOINT LeftFinger32
                                    {
                                        OFFSET   2.323470   0.000000   0.000000
                                        CHANNELS 3 Zrotation Xrotation Yrotation
                                        End Site
                                        {
                                            OFFSET   2.273050   0.000000   0.000000
                                        }
                                    }
                                }
                            }
                            JOINT LeftFinger4
                            {
                                OFFSET   7.435090   0.000000  -3.252850
                                CHANNELS 3 Zrotation Xrotation Yrotation
                                JOINT LeftFinger41
                                {
                                    OFFSET   3.717550   0.000000   0.000000
                                    CHANNELS 3 Zrotation Xrotation Yrotation
                                    JOINT LeftFinger42
                                    {
                                        OFFSET   1.858760   0.000000   0.000000
                                        CHANNELS 3 Zrotation Xrotation Yrotation
                                        End Site
                                        {
                                            OFFSET   1.818440   0.000000   0.000000
                                        }
                                    }
                                }
                            }
                        }
                    }
                }
            }
            JOINT RightCollar
            {
                OFFSET  -3.911900  19.017000  -0.467062
                CHANNELS 3 Zrotation Xrotation Yrotation
                JOINT RightShoulder
                {
                    OFFSET -10.383700   0.000015   0.000000
                    CHANNELS 3 Zrotation Xrotation Yrotation
                    JOINT RightElbow
                    {
                        OFFSET -26.662100   0.001341   0.000385
                        CHANNELS 3 Zrotation Xrotation Yrotation
                        JOINT RightWrist
                        {
                            OFFSET -28.869000   0.000025  -0.000080
                            CHANNELS 3 Zrotation Xrotation Yrotation
                            JOINT RightFinger0
                            {
                                OFFSET  -2.044650  -2.323490   3.252850
                                CHANNELS 3 Zrotation Xrotation Yrotation
                                JOINT RightFinger01
                                {
                                    OFFSET  -3.088130   0.000000   0.000000
                                    CHANNELS 3 Zrotation Xrotation Yrotation
                                    JOINT RightFinger02
                                    {
                                        OFFSET  -2.639460   0.000000   0.000000
                                        CHANNELS 3 Zrotation Xrotation Yrotation
                                        End Site
                                        {
                                            OFFSET  -2.582190   0.000000   0.000000
                                        }
                                    }
                                }
                            }
                            JOINT RightFinger1
                            {
                                OFFSET  -8.364480   0.000000   3.252850
                                CHANNELS 3 Zrotation Xrotation Yrotation
                                JOINT RightFinger11
                                {
                                    OFFSET  -4.646930   0.000000   0.000000
                                    CHANNELS 3 Zrotation Xrotation Yrotation
                                    JOINT RightFinger12
                                    {
                                        OFFSET  -2.323470   0.000000   0.000000
                                        CHANNELS 3 Zrotation Xrotation Yrotation
                                        End Site
                                        {
                                            OFFSET  -2.273050   0.000000   0.000000
                                        }
                                    }
                                }
                            }
                            JOINT RightFinger2
                            {
                                OFFSET  -8.364480   0.000000   1.078090
                                CHANNELS 3 Zrotation Xrotation Yrotation
                                JOINT RightFinger21
                                {
                                    OFFSET  -5.111610   0.000000   0.000000
                                    CHANNELS 3 Zrotation Xrotation Yrotation
                                    JOINT RightFinger22
                                    {
                                        OFFSET  -2.788160   0.000000   0.000000
                                        CHANNELS 3 Zrotation Xrotation Yrotation
                                        End Site
                                        {
                                            OFFSET  -2.727660   0.000000   0.000000
                                        }
                                    }
                                }
                            }
                            JOINT RightFinger3
                            {
                                OFFSET  -7.899780   0.000000  -1.078090
                                CHANNELS 3 Zrotation Xrotation Yrotation
                                JOINT RightFinger31
                                {
                                    OFFSET  -4.646920   0.000000   0.000000
                                    CHANNELS 3 Zrotation Xrotation Yrotation
                                    JOINT RightFinger32
                                    {
                                        OFFSET  -2.323470   0.000000   0.000000
                                        CHANNELS 3 Zrotation Xrotation Yrotation
                                        End Site
                                        {
                                            OFFSET  -2.273050   0.000000   0.000000
                                        }
                                    }
                                }
                            }
                            JOINT RightFinger4
                            {
                                OFFSET  -7.435090   0.000000  -3.252850
                                CHANNELS 3 Zrotation Xrotation Yrotation
                                JOINT RightFinger41
                                {
                                    OFFSET  -3.717550   0.000000   0.000000
                                    CHANNELS 3 Zrotation Xrotation Yrotation
                                    JOINT RightFinger42
                                    {
                                        OFFSET  -1.858770   0.000000   0.000000
                                        CHANNELS 3 Zrotation Xrotation Yrotation
                                        End Site
                                        {
                                            OFFSET  -1.818440   0.000000   0.000000
                                        }
                                    }
                                }
                            }
                        }
                    }
                }
            }
        }
    }
    JOINT LeftHip
    {
        OFFSET   9.783010   0.000000   0.000000
        CHANNELS 3 Zrotation Xrotation Yrotation
        JOINT LeftKnee
        {
            OFFSET   0.000070 -41.789100   0.000028
            CHANNELS 3 Zrotation Xrotation Yrotation
            JOINT LeftAnkle
            {
                OFFSET   0.000087 -41.133200  -0.000100
                CHANNELS 3 Zrotation Xrotation Yrotation
                JOINT LeftToe
                {
                    OFFSET   0.000000  -6.358960  14.674500
                    CHANNELS 3 Zrotation Xrotation Yrotation
                    End Site
                    {
                        OFFSET   0.000000   0.000000   3.913200
                    }
                }
            }
        }
    }
    JOINT RightHip
    {
        OFFSET  -9.783020   0.000000   0.000000
        CHANNELS 3 Zrotation Xrotation Yrotation
        JOINT RightKnee
        {
            OFFSET   0.000044 -41.789100  -0.000870
            CHANNELS 3 Zrotation Xrotation Yrotation
            JOINT RightAnkle
            {
                OFFSET  -0.000090 -41.133200  -0.000245
                CHANNELS 3 Zrotation Xrotation Yrotation
                JOINT RightToe
                {
                    OFFSET   0.000000  -6.358960  14.674500
                    CHANNELS 3 Zrotation Xrotation Yrotation
                    End Site
                    {
                        OFFSET   0.000000   0.000000   3.913200
                    }
                }
            }
        }
    }
}
MOTION
Frames: 4
Frame Time:   0.016667
  1.248010  89.485500  -2.358950  -0.913272  -0.798009   2.285210   0.752029   0.777524  -1.035530   1.518190   1.541260  -2.081460  -0.924214   1.076950   0.024021  -1.531150   2.181330   3.884770  -3.458150   3.433160  10.054800 -80.513900   8.848440   4.009780  -0.111036   0.617083 -12.708000   6.176540  -7.336070  -3.589210  35.115700  19.079000 -42.474000 -31.328600  -0.003404   0.005504 -10.672400  -0.001604   0.002102 -16.790300  -0.013541   0.044852 -13.737500   0.000836   0.000839  -9.616240   0.000000   0.002140 -21.559000  -0.471703   1.194090 -21.564000   0.001128   0.001390 -14.361600  -0.002205   0.000183 -16.996800  -2.479440   8.055440 -17.171500   0.000671   0.001108 -11.437100   0.000000   0.002353 -20.644700  -2.989660   7.881340 -31.276100   0.000000  -0.001171 -20.829900  -0.000751   0.000107   5.475110   4.986750   6.715420  73.719600  -4.727120  -2.300750   3.709890  -4.905340   9.704720 -12.183800  -4.698240   4.009220 -35.686600  21.200500  64.157600  16.948600  -0.006485   0.002048   3.474320   0.004208  -0.006692  16.074800   1.721060   5.954910  13.225300   0.000819   0.002167   9.257690   0.000497   0.004952  15.424000   0.455983   1.629530  15.430500   0.000985   0.001915  10.276700  -0.013642   0.000107  14.353800  -0.785665  -3.067230  14.374800   0.001632   0.009122   9.573630   0.000962   0.010522  17.795600  -0.968534  -3.014520  26.731600   0.001722  -0.001904  17.803200   0.000616  -0.001604   3.169920   2.832080  -0.423239  -0.099063   0.363836  11.072700  -2.802010  -2.491000  -2.779390   0.000000   0.000000   0.000000  -1.607140   3.637600  -6.064680   1.369880   0.497493 -12.203200   0.288820  -2.802580  -2.417890   0.000000   0.000000  -0.000000
  1.243350  89.485400  -2.371890  -0.912618  -0.807757   2.289500   0.748224   0.794204  -1.032690   1.510860   1.574730  -2.075970  -0.929483   1.113290   0.024122  -1.538720   2.255360   3.898110  -3.456410   3.425890  10.048500 -80.504100   8.870770   4.002750  -0.114984   0.599933 -12.708100   6.175060  -7.344270  -3.596540  35.120800  19.088300 -42.489300 -31.326500  -0.003404   0.005515 -10.667200  -0.001608   0.002109 -16.790900  -0.006723   0.022377 -13.738000   0.000838   0.000839  -9.616600   0.000000   0.002141 -21.552000  -0.459475   1.163420 -21.556700   0.001128   0.001391 -14.356700  -0.002205   0.000181 -16.992200  -2.473310   8.038210 -17.166000   0.000672   0.001107 -11.433000   0.000000   0.002354 -20.638800  -2.982260   7.864590 -31.265900   0.000000  -0.001172 -20.823100  -0.000752   0.000107   5.477510   4.974110   6.705780  73.719500  -4.707280  -2.311940   3.718330  -4.907480   9.702930 -12.184000  -4.701530   3.997740 -35.684000  21.176100  64.140100  16.986000  -0.006489   0.002059   3.493040   0.004210  -0.006678  16.092600   1.722130   5.951020  13.239900   0.000822   0.002163   9.267920   0.000497   0.004949  15.442100   0.455873   1.629530  15.448600   0.000989   0.001914  10.288800  -0.013650   0.000105  14.360600  -0.794122  -3.098640  14.382100   0.001636   0.009123   9.578490   0.000963   0.010525  17.801900  -0.978841  -3.045390  26.741800   0.001725  -0.001905  17.810000   0.000617  -0.001606   3.169660   2.830700  -0.423231  -0.099053   0.365642  11.072700  -2.805340  -2.485030  -2.784020  -0.000000   0.000000  -0.000000  -1.607230   3.639230  -6.064850   1.370610   0.499416 -12.210400   0.284400  -2.797100  -2.416330   0.000000   0.000000   0.000000
  1.235440  89.485400  -2.393280  -0.910976  -0.824379   2.296490   0.741390   0.822627  -1.027220   1.497650   1.631770  -2.065320  -0.939423   1.175470   0.024222  -1.552950   2.381880   3.933510  -3.453560   3.414010  10.037100 -80.486800   8.905780   3.990820  -0.121635   0.570991 -12.708200   6.173370  -7.355700  -3.603890  35.121800  19.097600 -42.504600 -31.324300  -0.003405   0.005531 -10.662100  -0.001614   0.002117 -16.795200   0.000096  -0.000097 -13.741500   0.000842   0.000838  -9.619080   0.000000   0.002144 -21.545000  -0.447247   1.132750 -21.549400   0.001131   0.001393 -14.351900  -0.002206   0.000176 -16.987500  -2.467180   8.020970 -17.160500   0.000675   0.001104 -11.428900   0.000000   0.002356 -20.633000  -2.974860   7.847840 -31.255700   0.000000  -0.001173 -20.816300  -0.000756   0.000107   5.481390   4.953800   6.689390  73.719500  -4.674030  -2.330560   3.732670  -4.913050   9.699320 -12.181700  -4.704850   3.980690 -35.666600  21.139800  64.117700  17.043700  -0.006494   0.002076   3.521870   0.004215  -0.006663  16.122600   1.725570   5.947140  13.264500   0.000827   0.002155   9.285210   0.000499   0.004940  15.473800   0.455763   1.629530  15.480300   0.000997   0.001912  10.309900  -0.013671   0.000103  14.371600  -0.807534  -3.148380  14.393800   0.001644   0.009130   9.586290   0.000967   0.010533  17.811300  -0.995142  -3.094270  26.757300   0.001733  -0.001909  17.820300   0.000621  -0.001612   3.169240   2.829310  -0.423213  -0.099081   0.370548  11.072900  -2.811050  -2.474800  -2.791590  -0.000000   0.000000  -0.000000  -1.607380   3.642270  -6.065030   1.372360   0.502052 -12.223400   0.276141  -2.788190  -2.413120   0.000000   0.000000  -0.000000
  1.228780  89.485400  -2.410080  -0.908396  -0.838736   2.301480   0.734824   0.846942  -1.020990   1.484870   1.680590  -2.053080  -0.949445   1.228100   0.024179  -1.567010   2.488610   3.986310  -3.451390   3.405310  10.026100 -80.470400   8.928920   3.979880  -0.127299   0.546313 -12.707800   6.178000  -7.359490  -3.597680  35.110400  19.092000 -42.502700 -31.340600  -0.003405   0.005535 -10.670300  -0.001618   0.002118 -16.823400  -0.002187   0.007260 -13.764600   0.000845   0.000834  -9.635240   0.000000   0.002146 -21.556000  -0.454065   1.149250 -21.560500   0.001137   0.001395 -14.359300  -0.002211   0.000169 -17.001500  -2.474380   8.037000 -17.175300   0.000678   0.001100 -11.438800   0.000000   0.002360 -20.644900  -2.982810   7.863500 -31.275000   0.000000  -0.001174 -20.829100  -0.000764   0.000110   5.484240   4.939300   6.675620  73.719500  -4.647240  -2.345160   3.744370  -4.922040   9.694910 -12.169700  -4.703130   3.971600 -35.645900  21.119600  64.115800  17.082100  -0.006492   0.002091   3.541030   0.004219  -0.006680  16.149300   1.732610   5.959160  13.286800   0.000836   0.002145   9.300810   0.000504   0.004923  15.504200   0.455790   1.633360  15.510700   0.001004   0.001904  10.330100  -0.013699   0.000104  14.375700  -0.818901  -3.190270  14.398500   0.001654   0.009141   9.589380   0.000973   0.010546  17.816700  -1.008810  -3.135460  26.766400   0.001747  -0.001918  17.826400   0.000629  -0.001621   3.168860   2.829340  -0.423184  -0.099243   0.381140  11.073000  -2.816110  -2.466870  -2.797530   0.000000   0.000000   0.000000  -1.607540   3.646320  -6.063650   1.375560   0.502540 -12.236300   0.267227  -2.780990  -2.408090   0.000000   0.000000   0.000000
